<svg xmlns="http://www.w3.org/2000/svg" width="79" height="64" viewBox="0 0 79 64"><path d="M34.967 7.063l-4.254-7.063c-2.441 1.495-30.713 12.207-30.713 39.617 0 7.231.336 24.172 18.9 24.172 11.187 0 13.94-10.279 13.94-13.584 0-21.977-21.382-14.177-21.382-14.177 0-18.071 19.805-26.844 23.509-28.965zM78.672 7.063l-4.254-7.063c-2.44 1.495-30.713 12.207-30.713 39.617 0 7.231.337 24.172 18.9 24.172 11.187 0 13.939-10.279 13.939-13.584 0-21.977-21.381-14.177-21.381-14.177.002-18.071 19.806-26.844 23.509-28.965z"/></svg>
